<?xml version="1.0" standalone="no"?>
<!DOCTYPE svg PUBLIC "-//W3C//DTD SVG 20010904//EN"
 "http://www.w3.org/TR/2001/REC-SVG-20010904/DTD/svg10.dtd">
<svg version="1.0" xmlns="http://www.w3.org/2000/svg"
 width="260.000000pt" height="280.000000pt" viewBox="0 0 260.000000 280.000000"
 preserveAspectRatio="xMidYMid meet">

<g transform="translate(0.000000,280.000000) scale(0.100000,-0.100000)"
fill="#3470FF" stroke="none">
<path d="M180 2672 c-75 -37 -70 41 -70 -1172 0 -1013 1 -1087 18 -1120 37
-75 -41 -70 1172 -70 1013 0 1087 1 1120 18 75 37 70 -41 70 1172 0 1213 5
1135 -70 1172 -33 17 -107 18 -1120 18 -1013 0 -1087 -1 -1120 -18z m2245 -47
l25 -24 0 -1101 0 -1101 -25 -24 -24 -25 -1101 0 -1101 0 -24 25 -25 24 0
1101 0 1101 25 24 24 25 1101 0 1101 0 24 -25z"/>
<path d="M206 2594 c-14 -14 -16 -127 -16 -1094 0 -967 2 -1080 16 -1094 14
-14 127 -16 1094 -16 967 0 1080 2 1094 16 14 14 16 127 16 1094 0 967 -2
1080 -16 1094 -14 14 -127 16 -1094 16 -967 0 -1080 -2 -1094 -16z m973 -219
c16 -8 40 -28 55 -46 l26 -31 153 1 152 2 43 -31 c23 -18 42 -36 42 -40 0 -10
-63 -60 -75 -60 -5 0 -17 7 -27 17 -17 15 -19 15 -36 0 -23 -21 -31 -21 -54 0
-17 15 -19 15 -38 -2 -20 -18 -22 -18 -49 -2 -27 16 -30 16 -54 -3 -14 -11
-33 -20 -42 -20 -9 0 -28 -14 -42 -30 -75 -89 -209 -79 -267 19 -61 105 16
241 137 241 26 0 61 -7 76 -15z m361 -458 c17 -8 48 -56 96 -145 48 -89 84
-144 108 -164 l36 -29 0 -160 0 -159 -40 0 -40 0 0 -53 c0 -29 -5 -58 -12 -65
-16 -16 -100 -16 -116 0 -7 7 -12 36 -12 65 l0 53 -260 0 -260 0 0 -53 c0 -29
-5 -58 -12 -65 -7 -7 -33 -12 -58 -12 -25 0 -51 5 -58 12 -7 7 -12 36 -12 65
l0 53 -40 0 -40 0 0 159 0 160 36 29 c24 20 60 75 108 164 48 89 79 137 96
145 18 9 88 13 240 13 152 0 222 -4 240 -13z m790 -1017 c0 -20 -7 -20 -1030
-20 -1023 0 -1030 0 -1030 20 0 20 7 20 1030 20 1023 0 1030 0 1030 -20z
m-1589 -199 c19 -16 21 -22 12 -32 -10 -10 -16 -9 -31 4 -35 32 -70 -3 -56
-57 7 -29 32 -34 64 -14 25 16 35 5 20 -21 -16 -30 -83 -29 -104 1 -30 43 -15
111 27 128 33 13 43 12 68 -9z m152 -59 c15 -37 27 -71 27 -75 0 -13 -31 -7
-36 8 -4 9 -19 15 -35 15 -17 0 -32 -6 -35 -15 -4 -8 -14 -15 -24 -15 -20 0
-22 -9 29 123 19 49 45 35 74 -41z m167 48 c12 -22 -2 -60 -21 -60 -5 0 2 -16
17 -35 25 -33 25 -35 6 -35 -12 0 -30 13 -42 30 -12 17 -28 30 -36 30 -9 0
-14 -11 -14 -30 0 -20 -5 -30 -15 -30 -12 0 -15 15 -15 75 l0 75 55 0 c44 0
56 -4 65 -20z m208 8 c17 -17 15 -38 -4 -59 -15 -17 -15 -20 6 -46 20 -25 20
-28 5 -32 -11 -2 -28 10 -42 28 -32 40 -51 41 -45 1 4 -25 1 -30 -17 -30 -19
0 -21 5 -21 75 l0 75 53 0 c29 0 58 -5 65 -12z m149 0 c-2 -7 -20 -13 -40 -13
-29 0 -37 -4 -37 -17 0 -14 8 -18 35 -18 19 0 35 -4 35 -10 0 -5 -16 -10 -35
-10 -28 0 -35 -4 -35 -20 0 -17 7 -20 40 -20 29 0 40 -4 40 -15 0 -12 -13 -15
-60 -15 l-60 0 0 75 0 75 61 0 c44 0 60 -3 56 -12z m92 -35 l31 -48 0 48 c0
35 4 47 15 47 12 0 15 -15 15 -75 0 -66 -2 -75 -18 -75 -11 0 -28 17 -43 43
l-24 42 -3 -42 c-2 -29 -8 -43 -18 -43 -11 0 -14 16 -14 75 0 91 13 97 59 28z
m201 31 c0 -11 -6 -15 -20 -11 -18 5 -20 0 -20 -59 0 -57 -2 -64 -20 -64 -18
0 -20 7 -20 64 0 59 -2 64 -20 59 -14 -4 -20 0 -20 11 0 13 11 16 60 16 49 0
60 -3 60 -16z m112 -58 c15 -38 28 -71 28 -73 0 -1 -9 -3 -20 -3 -11 0 -20 7
-20 15 0 10 -10 15 -34 15 -21 0 -36 -6 -40 -15 -3 -8 -13 -15 -22 -15 -11 0
-14 5 -10 18 45 121 52 133 70 130 14 -2 28 -24 48 -72z m78 15 l0 -60 37 -3
c62 -5 53 -28 -11 -28 l-56 0 0 75 c0 60 3 75 15 75 12 0 15 -13 15 -59z"/>
<path d="M1004 2246 c-10 -26 4 -48 28 -44 17 2 23 10 23 28 0 18 -6 26 -23
28 -13 2 -25 -3 -28 -12z"/>
<path d="M1016 1776 c-31 -57 -56 -107 -56 -110 0 -3 153 -6 340 -6 187 0 340
3 340 6 0 4 -25 53 -56 110 l-55 104 -229 0 -228 0 -56 -104z"/>
<path d="M924 1495 c-20 -31 -15 -53 17 -77 52 -39 111 22 75 77 -22 34 -70
34 -92 0z"/>
<path d="M1587 1502 c-30 -33 -21 -69 22 -92 20 -10 27 -9 50 8 32 24 37 46
17 77 -20 30 -65 33 -89 7z"/>
<path d="M840 663 c0 -6 -3 -18 -6 -27 -4 -11 -1 -16 10 -16 9 0 16 6 16 13 0
16 -20 46 -20 30z"/>
<path d="M975 682 c-15 -15 -2 -32 25 -32 37 0 41 26 5 32 -13 3 -27 3 -30 0z"/>
<path d="M1190 669 c0 -14 7 -19 25 -19 15 0 25 6 25 14 0 7 -11 16 -25 18
-19 4 -25 1 -25 -13z"/>
<path d="M1767 656 c-11 -27 -8 -36 8 -36 16 0 17 5 6 34 -7 18 -8 18 -14 2z"/>
<path d="M633 95 c0 -27 2 -38 4 -22 2 15 8 27 13 27 5 0 11 -12 13 -27 4 -26
4 -26 6 5 1 22 -4 32 -13 32 -8 0 -17 8 -19 18 -3 9 -5 -5 -4 -33z"/>
<path d="M1132 95 c0 -27 2 -43 5 -35 3 8 13 24 22 35 15 18 15 19 -1 7 -14
-12 -17 -10 -21 15 -2 16 -4 6 -5 -22z"/>
<path d="M750 120 c-4 -25 1 -54 10 -63 4 -5 5 3 3 17 -4 19 -1 26 10 26 9 0
17 -10 19 -22 2 -12 9 -23 16 -24 7 -1 8 0 2 3 -12 6 -13 40 -1 45 5 2 3 9 -5
16 -8 7 -14 8 -14 2 0 -14 -27 -13 -33 3 -4 8 -6 8 -7 -3z"/>
<path d="M978 117 c-7 -19 6 -60 20 -63 7 -1 8 0 2 3 -12 6 -13 40 -1 45 5 2
3 8 -4 15 -10 9 -14 9 -17 0z"/>
<path d="M1530 125 c-1 -5 -1 -21 0 -34 1 -13 -4 -28 -12 -32 -9 -6 -3 -9 17
-9 17 0 25 4 18 8 -6 4 -13 23 -16 42 -2 19 -5 31 -7 25z"/>
<path d="M1577 123 c-3 -5 -4 -21 -3 -38 1 -23 6 -30 21 -30 11 0 20 6 19 13
-1 6 -2 23 -2 37 -2 23 -25 35 -35 18z m23 -13 c0 -5 -4 -10 -10 -10 -5 0 -10
5 -10 10 0 6 5 10 10 10 6 0 10 -4 10 -10z m2 -35 c0 -5 -5 -11 -11 -13 -6 -2
-11 4 -11 13 0 9 5 15 11 13 6 -2 11 -8 11 -13z"/>
<path d="M1637 123 c-3 -5 -4 -21 -3 -38 1 -23 6 -30 21 -30 11 0 20 6 19 13
-1 6 -2 23 -2 37 -2 23 -25 35 -35 18z m23 -13 c0 -5 -4 -10 -10 -10 -5 0 -10
5 -10 10 0 6 5 10 10 10 6 0 10 -4 10 -10z m2 -35 c0 -5 -5 -11 -11 -13 -6 -2
-11 4 -11 13 0 9 5 15 11 13 6 -2 11 -8 11 -13z"/>
<path d="M1708 123 c7 -3 16 -2 19 1 4 3 -2 6 -13 5 -11 0 -14 -3 -6 -6z"/>
<path d="M1757 123 c-12 -12 -7 -33 7 -33 26 0 28 -20 4 -29 -16 -7 -18 -10
-6 -10 9 -1 20 4 23 9 9 14 55 12 55 -2 0 -10 2 -10 8 0 5 7 6 27 4 44 l-5 32
-25 -30 c-16 -18 -27 -24 -30 -16 -2 6 -10 12 -18 12 -20 0 -17 18 4 23 14 4
14 5 1 6 -9 0 -19 -2 -22 -6z m79 -40 c-10 -10 -19 5 -10 18 6 11 8 11 12 0 2
-7 1 -15 -2 -18z"/>
<path d="M1890 125 c-1 -5 -1 -21 0 -34 1 -13 -4 -28 -12 -32 -9 -6 -3 -9 17
-9 17 0 25 4 18 8 -6 4 -13 23 -16 42 -2 19 -5 31 -7 25z"/>
<path d="M1942 105 c-22 -28 -23 -30 -5 -34 10 -2 21 -8 24 -13 10 -15 16 14
10 47 l-6 29 -23 -29z m14 -22 c-10 -10 -19 5 -10 18 6 11 8 11 12 0 2 -7 1
-15 -2 -18z"/>
<path d="M1995 120 c-3 -5 0 -7 8 -4 24 9 28 -12 7 -31 -27 -25 -25 -35 8 -34
21 0 23 2 9 7 -15 7 -16 10 -3 27 7 10 12 25 9 32 -6 15 -29 17 -38 3z"/>
<path d="M580 93 c0 -10 4 -14 8 -8 4 6 11 13 16 18 5 4 2 7 -7 7 -10 0 -17
-8 -17 -17z"/>
<path d="M691 83 c-1 -27 3 -33 19 -33 16 0 20 6 19 33 -2 30 -2 30 -6 5 -6
-36 -20 -36 -26 0 -4 25 -4 25 -6 -5z"/>
<path d="M834 96 c-9 -23 3 -46 23 -45 17 1 17 2 1 6 -22 6 -24 23 -2 23 9 0
14 5 12 12 -7 19 -27 21 -34 4z"/>
<path d="M891 78 c2 -28 2 -29 6 -8 3 14 10 28 17 32 7 5 5 8 -6 8 -14 0 -18
-8 -17 -32z"/>
<path d="M930 93 c0 -10 4 -14 8 -8 4 6 11 13 16 18 5 4 2 7 -7 7 -10 0 -17
-8 -17 -17z"/>
<path d="M1024 95 c-8 -21 2 -45 20 -45 17 0 28 24 20 45 -4 8 -13 15 -20 15
-8 0 -17 -7 -20 -15z m31 -15 c0 -7 -6 -15 -12 -17 -8 -3 -13 4 -13 17 0 13 5
20 13 18 6 -3 12 -11 12 -18z"/>
<path d="M1084 95 c-8 -20 2 -45 18 -44 10 0 10 2 1 6 -7 2 -13 13 -13 23 0
10 6 21 13 23 9 4 9 6 -1 6 -7 1 -15 -6 -18 -14z"/>
<path d="M1224 95 c-8 -20 2 -45 18 -44 10 0 10 2 1 6 -7 2 -13 13 -13 23 0
10 6 21 13 23 9 4 9 6 -1 6 -7 1 -15 -6 -18 -14z"/>
<path d="M1274 95 c-8 -21 2 -45 20 -45 7 0 16 7 20 15 8 21 -3 45 -20 45 -8
0 -17 -7 -20 -15z m31 -15 c0 -7 -6 -15 -12 -17 -8 -3 -13 4 -13 17 0 13 5 20
13 18 6 -3 12 -11 12 -18z"/>
<path d="M1331 77 c2 -31 2 -31 6 -4 2 15 8 27 13 27 5 0 11 -12 13 -27 l4
-28 2 28 c0 15 5 27 10 27 5 0 12 -12 14 -27 4 -27 4 -27 6 4 1 29 -1 31 -34
31 -33 0 -35 -2 -34 -31z"/>
<path d="M1690 100 c0 -6 6 -10 14 -10 26 0 28 -20 4 -29 -15 -7 -17 -10 -7
-10 21 -1 40 21 31 35 -10 15 -42 25 -42 14z"/>
<path d="M592 65 c-11 -12 -10 -15 3 -15 8 0 15 7 15 15 0 18 -2 18 -18 0z"/>
<path d="M942 65 c-11 -12 -10 -15 3 -15 8 0 15 7 15 15 0 18 -2 18 -18 0z"/>
<path d="M1150 71 c0 -5 5 -13 10 -16 6 -3 10 -2 10 4 0 5 -4 13 -10 16 -5 3
-10 2 -10 -4z"/>
</g>
</svg>
