<?xml version="1.0" standalone="no"?>
<!DOCTYPE svg PUBLIC "-//W3C//DTD SVG 20010904//EN"
 "http://www.w3.org/TR/2001/REC-SVG-20010904/DTD/svg10.dtd">
<svg version="1.0" xmlns="http://www.w3.org/2000/svg"
 width="303.000000pt" height="166.000000pt" viewBox="0 0 303.000000 166.000000"
 preserveAspectRatio="xMidYMid meet">

<g transform="translate(0.000000,166.000000) scale(0.100000,-0.100000)"
fill="#000000" stroke="none">
<path d="M1100 993 c-200 -15 -386 -61 -584 -145 -97 -41 -143 -54 -245 -69
-69 -11 -136 -22 -147 -24 -20 -4 -22 -14 -29 -106 -6 -79 -12 -110 -31 -143
-26 -46 -29 -86 -13 -169 9 -45 16 -58 33 -62 24 -5 317 -45 328 -45 4 0 14
-12 22 -28 35 -68 118 -121 190 -122 116 0 205 74 230 192 l6 28 679 0 680 0
25 56 c29 64 29 64 16 64 -5 0 -19 -23 -31 -50 l-22 -50 -675 2 -675 3 -12 42
c-34 115 -151 182 -268 152 -54 -13 -128 -73 -146 -117 l-12 -29 -72 13 c-83
15 -229 53 -245 63 -8 5 -4 22 13 56 14 26 25 54 25 60 0 7 11 17 24 23 14 6
43 28 66 48 50 46 41 64 -33 64 -70 0 -55 8 49 25 145 25 183 36 301 86 224
97 394 132 643 133 153 1 175 -1 178 -15 3 -15 -20 -17 -195 -22 -194 -5 -299
-18 -419 -52 -74 -22 -104 -48 -104 -92 0 -30 -3 -33 -29 -33 -29 0 -49 -24
-29 -36 6 -4 191 -11 411 -16 221 -5 403 -11 405 -13 2 -2 10 -65 18 -141 14
-136 18 -153 30 -141 6 6 -12 221 -23 265 l-5 23 208 -7 c160 -5 211 -10 217
-20 9 -16 107 -19 122 -5 6 5 24 11 40 13 21 2 31 9 33 23 2 16 -14 31 -75 67
-97 59 -196 104 -271 123 -51 14 -260 45 -298 45 -8 0 -14 9 -14 21 0 21 3 21
73 15 249 -23 412 -82 596 -216 40 -29 53 -33 155 -41 332 -28 438 -41 505
-59 91 -26 122 -42 71 -38 -55 5 -50 -22 14 -70 40 -30 65 -42 89 -42 34 0 35
-1 41 -52 4 -29 10 -63 13 -75 5 -22 2 -23 -56 -23 -34 0 -61 -4 -61 -10 0 -6
27 -10 60 -10 60 0 67 -4 52 -28 -7 -10 -115 -30 -168 -32 -7 0 -12 21 -12 56
-1 76 -34 139 -94 180 -151 102 -348 -3 -348 -186 l0 -50 -690 0 c-683 0 -690
0 -690 -20 0 -20 7 -20 699 -20 l698 0 26 -39 c33 -50 113 -91 176 -91 62 1
128 32 176 84 l41 44 97 7 c53 4 104 13 113 20 25 18 28 110 7 235 l-18 105
-85 43 c-124 62 -208 79 -496 103 l-254 21 -82 55 c-103 70 -248 139 -332 158
-152 35 -419 52 -606 38z m279 -145 c5 -13 11 -48 15 -78 l7 -55 -235 5 c-129
3 -236 7 -239 10 -2 3 -7 29 -10 58 -5 38 -3 54 7 58 19 7 227 21 344 23 98 1
103 0 111 -21z m268 -17 c95 -20 272 -93 238 -99 -11 -2 -24 -9 -30 -15 -7 -9
-67 -11 -220 -7 l-210 5 -11 74 -11 73 78 -6 c42 -4 117 -15 166 -25z m-757
-8 c0 -10 3 -35 6 -55 l7 -38 -96 0 c-83 0 -98 3 -106 18 -16 30 3 44 90 68
104 28 99 28 99 7z m-690 -166 c0 -15 -11 -29 -30 -40 l-30 -18 0 34 c0 40 6
47 37 47 17 0 23 -6 23 -23z m2704 -103 c9 -3 16 -17 16 -30 0 -20 -5 -24 -29
-24 -28 0 -41 14 -41 46 0 15 27 18 54 8z m-2195 -92 c19 -9 48 -34 65 -55 27
-34 31 -47 31 -102 0 -55 -4 -68 -31 -102 -58 -73 -139 -92 -221 -52 -86 42
-120 157 -70 243 42 75 150 107 226 68z m1936 -17 c41 -31 75 -94 75 -140 0
-46 -34 -109 -75 -140 -75 -58 -192 -40 -247 37 -34 48 -33 158 1 207 53 74
173 92 246 36z m-2485 -36 c36 -11 106 -28 155 -38 l90 -17 3 -37 c3 -33 1
-37 -20 -37 -39 1 -277 36 -283 42 -8 8 -23 108 -16 108 3 0 35 -10 71 -21z"/>
<path d="M584 416 c-50 -22 -75 -63 -72 -115 2 -24 8 -46 14 -48 8 -3 10 10 7
40 -13 117 148 159 193 50 20 -47 4 -97 -40 -124 -30 -19 -57 -20 -116 -4
l-25 7 24 -21 c16 -15 37 -21 68 -21 86 0 145 95 108 173 -30 63 -100 91 -161
63z"/>
<path d="M2493 420 c-13 -5 -23 -14 -23 -20 0 -7 8 -9 23 -3 45 16 87 8 117
-23 44 -45 44 -101 0 -146 -28 -28 -36 -30 -78 -25 -62 7 -92 40 -92 103 0 24
-4 44 -10 44 -15 0 -12 -77 5 -110 46 -89 187 -74 224 24 38 99 -66 196 -166
156z"/>
<path d="M800 620 c0 -5 25 -10 55 -10 30 0 55 5 55 10 0 6 -25 10 -55 10 -30
0 -55 -4 -55 -10z"/>
<path d="M1480 620 c0 -5 25 -10 55 -10 30 0 55 5 55 10 0 6 -25 10 -55 10
-30 0 -55 -4 -55 -10z"/>
</g>
</svg>
